<?xml version="1.0" encoding="UTF-8"?>
<svg id="Ebene_2" xmlns="http://www.w3.org/2000/svg" version="1.1" viewBox="0 0 8.2 8.5">
  <!-- Generator: Adobe Illustrator 30.3.0, SVG Export Plug-In . SVG Version: 2.1.3 Build 182)  -->
  <defs>
    <style>
      .st0 {
        fill: #fff;
      }
    </style>
  </defs>
  <rect class="st0" width="8.2" height="8.5"/>
  <g id="Ebene_1-2">
    <g>
      <path d="M2.1,3s0,0,0,0h0c0,0,0,0-.1,0-.2,0-.2,0-.2.1s0,.1,0,.2c0,.1,0,.2,0,.3s0,.2,0,.4,0,.1,0,.2,0,.1-.1.1-.1,0-.2,0c0,0-.2,0-.2,0-.1,0-.2,0-.2-.1v-.5c0-.1,0-.2,0-.3s0-.1,0-.2v-.3c0-.2,0-.3,0-.5,0-.2,0-.4,0-.6s0-.2,0-.4c0-.1,0-.2.1-.2h.1c0,0,.2,0,.2,0h0c.1,0,.2,0,.2.1h0c0,.2,0,.3,0,.5,0,0,0,.1,0,.2h0c0,0,0,.1,0,.2h0c0,.1,0,.2,0,.2s.1,0,.2,0c0,0,0,0,0,0v-.2c0-.2,0-.3,0-.4v-.3s0-.2.2-.2.1,0,.2,0,.1,0,.2,0c.1,0,.2,0,.2.2s0,.3,0,.4c0,.3,0,.5,0,.8s0,.3,0,.5,0,.3,0,.4v.3c0,.1,0,.2,0,.3,0,.2,0,.2-.2.2s-.2,0-.2,0c0,0,0,0-.2,0-.1,0-.1,0-.1-.2s0-.2,0-.3v-.2c0-.1,0-.2,0-.3h0c0,0,0,0,0,0Z"/>
      <path d="M3.6,2.5c0,.1,0,.2,0,.3v.5c0,.1,0,.2.2.2s.2-.1.2-.2v-.9c0-.2,0-.3,0-.5v-.4c0-.1,0-.2,0-.4,0,0,.1,0,.1,0h.4c.1,0,.2.1.2.2v.2c0,.1,0,.2,0,.3v.5c0,.1,0,.2,0,.3v.3c0,.1,0,.2,0,.4s0,.2,0,.3,0,.4-.3.6c-.2.1-.4.2-.5.2-.4,0-.5,0-.7-.2-.2-.2-.2-.4-.2-.8s0-.3,0-.5,0-.4,0-.6h0c0-.2,0-.2,0-.3,0-.2,0-.3,0-.5s0-.2.1-.2c.1,0,.2,0,.3,0s0,0,.2,0c.1,0,.1,0,.1.1v.9c0,.1,0,.2,0,.4h0s0,0,0,0Z"/>
      <path d="M6.4,1.1h.2s0,0,0,0,.1,0,.1.1h0c0,.4,0,.6,0,.9v.3c0,.2,0,.3,0,.5s0,.3,0,.4,0,.2,0,.3c0,.1,0,.2,0,.3s0,.2-.1.2-.1,0-.2,0h-.1s0,0,0,0c0,0,0,0-.1,0,0,0-.4-1.1-.4-1.2,0,0,0,0,0-.1,0,0,0-.2,0-.2s0,0,0,.1c0,.2,0,.3,0,.5s0,.2,0,.3c0,.2,0,.3,0,.5s0,.1-.1.1h-.3c0,0-.1,0-.2,0-.1,0-.1-.1-.1-.1v-.3h0v-.6c0-.3,0-.5,0-.8s0-.3,0-.4c0-.1,0-.2,0-.3s0-.2,0-.4,0-.1.1-.1h0c.1,0,.2,0,.4,0s0,0,0,0c0,0,.1.2.2.4,0,.1,0,.2,0,.3,0,.1,0,.2,0,.3s0,.2,0,.3c0,0,0,0,0,0,0,0,0,0,0,0,0,0,0-.1,0-.1,0-.2,0-.4,0-.6v-.2c0-.2,0-.3,0-.4s0-.1,0-.1,0,0,0,0h.2Z"/>
      <path d="M2,6.1h0s0,0,0,0h0v-.2s0-.3,0-.3c0,0,0,0,0,0,0,0,0,0,0,0h.4c0,0,.1,0,.2,0,.1,0,.2,0,.2.2s0,.2,0,.2,0,.2,0,.3v1c0,0,0,.1,0,.2,0,0-.4,0-.5,0s-.5,0-.7-.1c-.4-.2-.5-.7-.5-1.3s0-.6,0-.6c0,0,0-.4.2-.5h0c0-.2.1-.3.2-.3.2-.2.4-.2.5-.2,0,0,0,0,.2,0,.2,0,.4,0,.4,0,0,0,0,0,0,0,0,0,0,0,0,0v.3c0,0,0,.2,0,.2,0,0,0,0,0,0,0,0,0,0,0,0,0,0,0,0-.1,0,0,0-.2,0-.2,0s0,0-.1,0c-.2,0-.2,0-.3.2,0,0,0,.1-.1.2,0,0,0,.2,0,.3s0,.2,0,.3,0,.7.3.7.1,0,.1-.2,0-.1,0-.2h0c0-.2,0-.2,0-.2,0,0,0,0,0,0h0Z"/>
      <path d="M3.8,5.5c.1,0,.2,0,.4,0,.2,0,.2.1.2.2v.2c0,.1,0,.2-.2.2s-.2,0-.3,0-.2,0-.2,0c0,0,0,0,0,0s0,0,0,.1h0c0,.2,0,.3.1.3h.4c.3,0,.3,0,.3.3v.2c0,.1,0,.2-.2.2h-.5c0,0-.1,0-.2,0-.1,0-.2,0-.4,0s-.2,0-.2-.2c0-.2,0-.3,0-.5s0-.4,0-.7v-.9c0-.2,0-.4,0-.6s0-.2.2-.2,0,0,.2,0c.2,0,.3,0,.5,0s.2,0,.3,0h.2c.2,0,.2,0,.2.2v.3c0,.1,0,.2-.2.2h-.3s-.1,0-.1,0h0s0,0,0,0c0,0,0,0,0,.1v.2s0,0,0,0c0,0,0,0,.1,0h0Z"/>
      <path d="M4.6,4.8v-.2c0-.2,0-.3.2-.3s.2,0,.2,0,.2,0,.3,0h.3c.2,0,.3,0,.5.2.3.3.2.5.2.8,0,0,0,.2,0,.3,0,.2,0,.4-.2.6,0,0,0,0-.1.1,0,0,0,0,0,0,0,0,0,0,0,.1,0,0,0,0,0,.1,0,.2,0,.3.2.4,0,.2.1.2.1.3s0,.1-.2.1h0s-.2,0-.2,0c0,0-.1,0-.2,0-.1,0-.1,0-.1-.2,0,0,0,0,0-.1,0-.2-.1-.3-.2-.5,0,0,0-.2-.1-.2s0,0,0,0v.3c0,.2,0,.3,0,.4s0,.2-.1.2h0c0,0-.1,0-.2,0s-.1,0-.2,0-.1,0-.1-.2v-.2c0-.2,0-.3,0-.4h0v-1.9h0ZM5.3,5.1h0c0,.2,0,.5,0,.6,0,0,0,0,.1,0,.1,0,.2,0,.2-.2s0-.1,0-.2h0c0-.1,0-.2,0-.2,0,0,0,0,0-.1,0,0,0,0-.1,0-.1,0-.2,0-.2.1h0Z"/>
      <path d="M6.8,7.4h-.2s-.1,0-.1-.1v-.4s0,0,0-.1c0,0,0-.1,0-.1s.2,0,.2,0,.3,0,.3,0c0,0,0,0,0,0,0,0,0,0,0,0v.5c0,0,0,.2,0,.2h-.3,0Z"/>
    </g>
  </g>
</svg>