<?xml version="1.0" encoding="UTF-8"?>
<svg id="Ebene_2" data-name="Ebene 2" xmlns="http://www.w3.org/2000/svg" viewBox="0 0 15.99 4.18">
  <defs>
    <style>
      .cls-1 {
        fill: #1d1d1b;
      }
    </style>
  </defs>
  <g id="Ebene_1-2" data-name="Ebene 1">
    <g>
      <path class="cls-1" d="M1.34,2.63s-.01-.09-.02-.09c0-.01,0-.04,0-.05-.05-.06-.07-.08-.16-.08-.21,0-.24.02-.24.17,0,.08-.01.14-.01.22,0,.15.03.25.03.39,0,.17-.02.3-.02.48,0,.11.02.18.02.29,0,.13-.07.17-.15.17-.09,0-.15-.01-.23-.01-.12,0-.2.01-.32.01-.17,0-.21-.08-.21-.18v-.66C.01,3.15,0,3.04,0,2.89c0-.08.01-.15.01-.23v-.44C.01,1.99,0,1.84,0,1.62c0-.31.03-.53.03-.85C.03.59.01.45.01.26.01.06.12.04.22.04c.06,0,.1,0,.16,0,.12,0,.21-.01.32-.01h.02c.16,0,.22.08.22.17h0c0,.25,0,.42-.01.65,0,.08-.01.14-.01.21v.02c0,.08.01.13.01.21,0,.03,0,.06,0,.09,0,.06.02.12.13.12.02,0,.19,0,.21-.03.03-.03.02-.03.03-.05l.02-.21c.02-.2,0-.34,0-.54v-.39c0-.05-.04-.26.2-.26.09,0,.15.02.23.02.1,0,.17-.02.27-.02.17,0,.23.07.23.24,0,.21-.02.37-.02.58,0,.39.02.67.02,1.06,0,.24-.01.41-.01.65,0,.2.01.34,0,.54,0,.15,0,.25,0,.39s.02.24.02.39c0,.23-.09.26-.23.26-.12,0-.21-.02-.33-.01-.07,0-.12.01-.2.01-.19,0-.19-.1-.19-.32,0-.16.02-.27.02-.42,0-.08,0-.13,0-.21,0-.16.02-.27.02-.42v-.12Z"/>
      <path class="cls-1" d="M3.43,1.92c0,.14.02.25.02.39,0,.09,0,.16,0,.26,0,.16,0,.28,0,.44,0,.15.03.24.21.24.24,0,.24-.17.24-.26,0-.2,0-.35,0-.56,0-.24,0-.4,0-.64,0-.22-.01-.38-.01-.6,0-.19,0-.33,0-.52s-.02-.33-.02-.53c0-.15.18-.14.19-.14.1,0,.19,0,.28,0h.02c.09,0,.16,0,.24,0,.19,0,.2.15.2.21,0,.08,0,.13,0,.2,0,.16.01.27.01.43v.3c0,.13,0,.22,0,.35,0,.16-.01.27-.01.43,0,.13,0,.27,0,.4,0,.19-.02.32-.02.51,0,.13.01.23.01.35,0,.1-.01.48-.4.77-.25.19-.47.21-.71.21-.47,0-.72-.09-.92-.31-.27-.3-.23-.53-.23-1.1,0-.22-.02-.38-.02-.6,0-.31.02-.53.02-.83,0-.05,0-.1,0-.16,0-.09.01-.16.01-.25,0-.25-.02-.42-.02-.67,0-.15.06-.23.16-.23.15,0,.24.01.39.01.08,0,.13-.01.2-.01.15,0,.19.09.19.17v.2c0,.19,0,.31,0,.49v.48c0,.19-.01.33-.01.52v.04Z"/>
      <path class="cls-1" d="M7.06.06c.08,0,.13,0,.2,0,.05,0,.08-.02.13-.02.04,0,.15.01.15.15v.19c0,.37-.01.63-.01,1.01,0,.16,0,.27,0,.42,0,.23-.02.4-.02.64,0,.21.02.35.02.56,0,.17-.01.28,0,.45,0,.16.01.28.01.43,0,.17-.04.24-.16.24-.11,0-.19-.01-.3-.01-.07,0-.12,0-.19,0-.05,0-.08.02-.13.02-.09,0-.11-.06-.14-.1-.03-.04-.47-1.49-.48-1.53-.02-.06-.03-.11-.05-.18-.02-.1-.08-.28-.09-.28-.01,0-.02.1-.02.16,0,.24.02.42.02.66,0,.17-.01.29-.01.45,0,.24.04.41.04.65,0,.13-.06.17-.17.17h-.15c-.09,0-.15,0-.23,0-.09,0-.15.01-.24.01-.16,0-.16-.15-.16-.19,0-.14,0-.24,0-.38v-.17c0-.25,0-.43,0-.68,0-.37.02-.63.02-1,0-.2-.02-.34-.01-.54,0-.16.01-.28.01-.44,0-.2-.02-.33-.02-.52,0-.15.1-.16.16-.16h.09c.19,0,.33-.01.52-.01.04,0,.1,0,.13.02.12.08.16.32.24.58.04.15.09.25.13.39.05.15.07.26.11.41.04.15.08.25.12.4.01.05.01.08.03.13,0,.03.03.05.03.05.01,0,.02-.14.02-.14,0-.3-.04-.52-.04-.82,0-.1,0-.21,0-.31,0-.21-.03-.36-.03-.57,0-.01,0-.14.11-.14.05,0,.08.01.12.01h.24Z"/>
      <path class="cls-1" d="M9.15,2.42s-.03,0-.05,0c0,0-.1.01-.1-.08v-.05c0-.05,0-.09,0-.14,0-.05,0-.09,0-.14,0-.04-.01-.38.02-.42.02-.04.01-.02.04-.05,0-.01.05-.03.08-.03.2,0,.33,0,.53,0,.1,0,.17-.01.27-.01.17,0,.2.1.2.32,0,.12-.01.2-.01.32,0,.15.01.24.01.39v1.03c0,.1,0,.17,0,.28,0,.11-.02.16-.08.2-.12.12-.5.12-.63.12-.03,0-.6.02-.94-.17-.48-.28-.71-.93-.71-1.78,0-.27.05-.77.06-.78,0,0,.09-.47.26-.72,0,0,.13-.17.13-.17.1-.13.15-.19.28-.29.27-.2.56-.21.64-.23.04,0,.13-.02.24-.02.21,0,.52.06.55.08.02,0,.04.01.07.05.04.05.04.1.04.12,0,.02,0,.28,0,.43,0,.1,0,.21-.02.24-.03.03-.05.04-.06.05,0,0-.06.03-.09.03-.06,0-.1-.03-.16-.04-.12-.03-.21-.03-.25-.03-.03,0-.12,0-.15.01-.24.04-.28.09-.4.24-.05.07-.11.14-.15.28-.03.13-.03.28-.03.41,0,.13-.02.23-.02.37,0,.15.02.99.41.99.1,0,.15-.08.15-.22,0-.1,0-.17-.01-.28,0-.08,0-.16,0-.18,0-.04,0-.06-.02-.1-.03-.05-.06-.05-.08-.05h-.01Z"/>
      <path class="cls-1" d="M11.48,1.55c.17,0,.3-.01.47-.01.28,0,.25.15.25.33v.3c0,.19-.06.28-.26.28-.13,0-.21-.02-.34-.02-.11,0-.26.02-.28.03-.03.02-.08.06-.08.13,0,.06.01.11.01.18v.02c0,.05,0,.1,0,.15,0,.1,0,.24.16.24h.09c.08,0,.13,0,.21,0,.06,0,.11,0,.18,0,.42,0,.42.04.42.35v.33c0,.17-.06.27-.25.27-.17,0-.3,0-.47,0h-.25c-.1,0-.18-.01-.28-.01-.19,0-.32.02-.51.02-.13,0-.21-.09-.21-.22,0-.26.01-.45.01-.71,0-.35-.03-.59-.02-.94,0-.12,0-.19,0-.31,0-.17,0-.29,0-.45,0-.17,0-.3,0-.47,0-.29-.02-.49-.02-.79,0-.19.13-.21.2-.21.08,0,.13.01.21.01.22,0,.38-.02.6-.02.16,0,.27.01.44.01.07,0,.14,0,.21,0,.21,0,.24.1.24.28v.36c0,.17-.05.25-.24.25-.05,0-.09,0-.15,0h-.1s-.09,0-.14,0c-.02,0-.16.01-.19.01h-.08s-.03,0-.05.02c-.04.03-.06.08-.06.16v.32s0,.05.02.06c.03.05.09.07.17.07h.08Z"/>
      <path class="cls-1" d="M12.54.6v-.2c0-.22-.03-.38.27-.38.12,0,.2.01.32.01.14,0,.24-.02.38-.02.14,0,.25,0,.4,0h.02c.21,0,.41.05.61.26.34.35.28.72.3,1.07,0,.13.02.21.02.34,0,.23-.07.54-.26.77-.05.06-.1.09-.15.15-.02.03-.02.04-.02.05,0,.05.04.1.06.16.03.07.06.12.09.19.09.2.12.35.21.56.08.2.15.31.15.4,0,.08-.05.18-.21.18h-.02s-.27-.01-.29-.01c-.11,0-.19.02-.29.02-.17,0-.16-.1-.19-.22-.02-.06-.03-.1-.05-.16-.08-.22-.16-.37-.22-.6-.01-.05-.03-.25-.15-.25-.09,0-.08.08-.09.1v.35c-.01.21.02.36.02.57,0,.17-.08.23-.17.23h-.01c-.1,0-.19-.02-.3-.02s-.18.03-.29.03c-.1,0-.16-.08-.16-.23,0-.1,0-.18,0-.28,0-.21.01-.35.01-.56v-.03c0-.24,0-.41,0-.64V.6ZM13.41,1.03s0,.04,0,.06c0,.04,0,.07,0,.1,0,.07-.03.56.01.63.04.06.07.12.18.11.18,0,.31-.12.31-.31,0-.1,0-.17-.01-.27,0-.07,0-.12,0-.19,0,0,0-.08-.02-.13,0-.01-.03-.1-.1-.16-.03-.02-.09-.04-.17-.04-.16,0-.2.05-.2.15v.02Z"/>
      <path class="cls-1" d="M15.45,4.13c-.08,0-.14,0-.23,0-.06,0-.14-.02-.14-.15,0-.09,0-.15,0-.24v-.31c0-.05-.01-.09-.01-.14,0-.09.03-.16.13-.16.13,0,.21.01.33.01.16,0,.34-.02.38,0,.02.02.05.05.05.05.01.01.02.05.02.08,0,.12,0,.2,0,.31s0,.2,0,.31c0,.07,0,.23-.13.23-.03,0-.06,0-.09,0h-.32Z"/>
    </g>
  </g>
</svg>